<?xml version="1.0" standalone="no"?><!DOCTYPE svg PUBLIC "-//W3C//DTD SVG 1.1//EN" "http://www.w3.org/Graphics/SVG/1.1/DTD/svg11.dtd"><svg t="1536304556754" class="icon" style="" viewBox="0 0 1025 1024" version="1.1" xmlns="http://www.w3.org/2000/svg" p-id="28507" xmlns:xlink="http://www.w3.org/1999/xlink" width="64.0625" height="64"><defs><style type="text/css"></style></defs><path d="M445.520896 519.267328c-58.496-29.116416-97.660928-93.351936-97.660928-168.833024 0-102.720512 75.334656-185.952256 168.13056-185.952256s168.13056 83.231744 168.13056 185.952256c0 75.35616-39.036928 139.46368-97.28512 168.708096C731.01824 553.8816 840.154112 692.220928 847.26272 860.054528l-662.293504 0.499712C194.075648 694.72256 302.711808 554.633216 445.520896 519.267328L445.520896 519.267328 445.520896 519.267328zM445.520896 519.267328" fill="#eeb174" p-id="28508"></path><path d="M655.808512 185.854976c38.78912 41.485312 62.864384 99.72224 62.864384 164.082688 0 59.482112-20.580352 113.593344-54.257664 154.207232l0 0c104.769536 49.864704 183.969792 152.961024 209.787904 278.555648l0 0 149.797888-0.123904c-6.362112-149.21216-103.399424-272.180224-231.49056-303.050752 51.761152-25.991168 86.433792-82.975744 86.433792-149.95968 0-91.352064-66.85184-165.331968-149.42208-165.331968-27.439104 0-53.256192 8.247296-75.334656 22.493184" fill="#eeb174" p-id="28509"></path><path d="M369.938432 186.851328c-22.078464-14.369792-47.895552-22.493184-75.334656-22.493184-82.57024 0-149.42208 73.97888-149.42208 165.334016 0 66.980864 34.671616 123.966464 86.433792 149.960704C103.396352 510.395392 6.363136 633.36448 0 782.575616l149.794816 0.123904 0 0c25.82016-125.594624 105.02144-228.690944 209.790976-278.555648l0 0c-33.677312-40.613888-54.257664-94.850048-54.257664-154.207232 0-64.359424 24.072192-122.596352 62.864384-164.082688" fill="#eeb174" p-id="28510"></path></svg>